<mxfile host="Electron" modified="2023-11-18T08:35:18.912Z" agent="Mozilla/5.0 (X11; Linux x86_64) AppleWebKit/537.36 (KHTML, like Gecko) draw.io/22.1.2 Chrome/114.0.5735.289 Electron/25.9.4 Safari/537.36" etag="0EW1ZyZd48S71VZWGr_8" version="22.1.2" type="device">
  <diagram name="Page-1" id="U7-cKlfv5PTrTjfOpDwA">
    <mxGraphModel dx="1364" dy="1243" grid="0" gridSize="10" guides="1" tooltips="1" connect="1" arrows="1" fold="1" page="0" pageScale="1" pageWidth="827" pageHeight="1169" math="0" shadow="0">
      <root>
        <mxCell id="0" />
        <mxCell id="1" parent="0" />
        <mxCell id="_3iAhGR6jsmJt0yVG2D_-32" value="Конец цикла по j" style="shape=loopLimit;whiteSpace=wrap;html=1;strokeColor=default;fontFamily=Helvetica;fontSize=12;fontColor=default;fillColor=default;rotation=0;direction=west;" parent="1" vertex="1">
          <mxGeometry x="793.74" y="99" width="207.5" height="60" as="geometry" />
        </mxCell>
        <mxCell id="_3iAhGR6jsmJt0yVG2D_-33" value="Конец цикла по i" style="shape=loopLimit;whiteSpace=wrap;html=1;strokeColor=default;fontFamily=Helvetica;fontSize=12;fontColor=default;fillColor=default;rotation=0;direction=west;" parent="1" vertex="1">
          <mxGeometry x="793.74" y="183" width="207.5" height="60" as="geometry" />
        </mxCell>
        <mxCell id="_3iAhGR6jsmJt0yVG2D_-37" value="" style="endArrow=classic;html=1;rounded=0;fontFamily=Helvetica;fontSize=12;fontColor=default;entryX=0.5;entryY=1;entryDx=0;entryDy=0;exitX=0.5;exitY=0;exitDx=0;exitDy=0;" parent="1" source="_3iAhGR6jsmJt0yVG2D_-32" target="_3iAhGR6jsmJt0yVG2D_-33" edge="1">
          <mxGeometry width="50" height="50" relative="1" as="geometry">
            <mxPoint x="999.99" y="309" as="sourcePoint" />
            <mxPoint x="1049.99" y="259" as="targetPoint" />
          </mxGeometry>
        </mxCell>
        <mxCell id="_3iAhGR6jsmJt0yVG2D_-42" value="А" style="ellipse;whiteSpace=wrap;html=1;aspect=fixed;strokeColor=default;fontFamily=Helvetica;fontSize=12;fontColor=default;fillColor=default;rotation=0;" parent="1" vertex="1">
          <mxGeometry x="353.75" y="722" width="80" height="80" as="geometry" />
        </mxCell>
        <mxCell id="_3iAhGR6jsmJt0yVG2D_-43" value="А" style="ellipse;whiteSpace=wrap;html=1;aspect=fixed;strokeColor=default;fontFamily=Helvetica;fontSize=12;fontColor=default;fillColor=default;rotation=0;" parent="1" vertex="1">
          <mxGeometry x="857.49" y="-1" width="80" height="80" as="geometry" />
        </mxCell>
        <mxCell id="_3iAhGR6jsmJt0yVG2D_-44" value="" style="endArrow=classic;html=1;rounded=0;fontFamily=Helvetica;fontSize=12;fontColor=default;entryX=0.5;entryY=1;entryDx=0;entryDy=0;exitX=0.5;exitY=1;exitDx=0;exitDy=0;" parent="1" source="_3iAhGR6jsmJt0yVG2D_-43" target="_3iAhGR6jsmJt0yVG2D_-32" edge="1">
          <mxGeometry width="50" height="50" relative="1" as="geometry">
            <mxPoint x="540" y="499" as="sourcePoint" />
            <mxPoint x="897.4899999999998" y="99" as="targetPoint" />
          </mxGeometry>
        </mxCell>
        <mxCell id="yjFc0E0NA0qaScyZaOSi-9" value="" style="endArrow=classic;html=1;rounded=0;exitX=0.5;exitY=1;exitDx=0;exitDy=0;entryX=0.5;entryY=0;entryDx=0;entryDy=0;" parent="1" source="yjFc0E0NA0qaScyZaOSi-25" target="yjFc0E0NA0qaScyZaOSi-27" edge="1">
          <mxGeometry width="50" height="50" relative="1" as="geometry">
            <mxPoint x="897.4899999999998" y="581" as="sourcePoint" />
            <mxPoint x="897.4899999999998" y="599" as="targetPoint" />
          </mxGeometry>
        </mxCell>
        <mxCell id="yjFc0E0NA0qaScyZaOSi-13" value="" style="strokeWidth=1;html=1;shape=mxgraph.flowchart.annotation_2;align=left;labelPosition=right;pointerEvents=1;" parent="1" vertex="1">
          <mxGeometry x="525" y="-34" width="50" height="100" as="geometry" />
        </mxCell>
        <mxCell id="yjFc0E0NA0qaScyZaOSi-14" value="" style="endArrow=none;dashed=1;html=1;rounded=0;exitX=1;exitY=0.5;exitDx=0;exitDy=0;exitPerimeter=0;entryX=0;entryY=0.5;entryDx=0;entryDy=0;entryPerimeter=0;" parent="1" source="6fxj0AOr8f9V504iEyFA-1" target="yjFc0E0NA0qaScyZaOSi-13" edge="1">
          <mxGeometry width="50" height="50" relative="1" as="geometry">
            <mxPoint x="497.5" y="190" as="sourcePoint" />
            <mxPoint x="789" y="478" as="targetPoint" />
          </mxGeometry>
        </mxCell>
        <mxCell id="yjFc0E0NA0qaScyZaOSi-15" value="Алгоритм умножения по Винограду" style="text;html=1;strokeColor=none;fillColor=none;align=center;verticalAlign=middle;whiteSpace=wrap;rounded=0;" parent="1" vertex="1">
          <mxGeometry x="566" y="-27" width="79" height="30" as="geometry" />
        </mxCell>
        <mxCell id="yjFc0E0NA0qaScyZaOSi-16" value="Вход: матрицы А и В&lt;br&gt;Выход: матрица resultMatrix" style="text;html=1;strokeColor=none;fillColor=none;align=center;verticalAlign=middle;whiteSpace=wrap;rounded=0;" parent="1" vertex="1">
          <mxGeometry x="540" y="28" width="153" height="30" as="geometry" />
        </mxCell>
        <mxCell id="yjFc0E0NA0qaScyZaOSi-18" value="sumRow[i] = sumRow[i] + firstMatrix[i][2 * j] * firstMatrix[i][2 * j + 1]" style="rounded=0;whiteSpace=wrap;html=1;rotation=0;" parent="1" vertex="1">
          <mxGeometry x="290" y="638" width="207.5" height="60" as="geometry" />
        </mxCell>
        <mxCell id="yjFc0E0NA0qaScyZaOSi-19" value="" style="endArrow=classic;html=1;rounded=0;entryX=0.5;entryY=0;entryDx=0;entryDy=0;exitX=0.5;exitY=1;exitDx=0;exitDy=0;" parent="1" source="yjFc0E0NA0qaScyZaOSi-18" target="_3iAhGR6jsmJt0yVG2D_-42" edge="1">
          <mxGeometry width="50" height="50" relative="1" as="geometry">
            <mxPoint x="739" y="528" as="sourcePoint" />
            <mxPoint x="789" y="478" as="targetPoint" />
          </mxGeometry>
        </mxCell>
        <mxCell id="yjFc0E0NA0qaScyZaOSi-20" value="" style="endArrow=classic;html=1;rounded=0;entryX=0.5;entryY=0;entryDx=0;entryDy=0;exitX=0.5;exitY=1;exitDx=0;exitDy=0;" parent="1" source="6fxj0AOr8f9V504iEyFA-4" target="yjFc0E0NA0qaScyZaOSi-18" edge="1">
          <mxGeometry width="50" height="50" relative="1" as="geometry">
            <mxPoint x="393.75" y="620" as="sourcePoint" />
            <mxPoint x="789" y="478" as="targetPoint" />
          </mxGeometry>
        </mxCell>
        <mxCell id="yjFc0E0NA0qaScyZaOSi-21" value="Цикл i = 0; i &amp;lt; m" style="shape=loopLimit;whiteSpace=wrap;html=1;rotation=0;" parent="1" vertex="1">
          <mxGeometry x="793.74" y="264" width="207.5" height="60" as="geometry" />
        </mxCell>
        <mxCell id="yjFc0E0NA0qaScyZaOSi-22" value="" style="endArrow=classic;html=1;rounded=0;entryX=0.5;entryY=0;entryDx=0;entryDy=0;exitX=0.5;exitY=0;exitDx=0;exitDy=0;" parent="1" source="_3iAhGR6jsmJt0yVG2D_-33" target="yjFc0E0NA0qaScyZaOSi-21" edge="1">
          <mxGeometry width="50" height="50" relative="1" as="geometry">
            <mxPoint x="739" y="367" as="sourcePoint" />
            <mxPoint x="789" y="317" as="targetPoint" />
          </mxGeometry>
        </mxCell>
        <mxCell id="yjFc0E0NA0qaScyZaOSi-23" value="Цикл j = 0; j &amp;lt; p / 2" style="shape=loopLimit;whiteSpace=wrap;html=1;rotation=0;" parent="1" vertex="1">
          <mxGeometry x="793.74" y="345" width="207.5" height="60" as="geometry" />
        </mxCell>
        <mxCell id="yjFc0E0NA0qaScyZaOSi-24" value="" style="endArrow=classic;html=1;rounded=0;entryX=0.5;entryY=0;entryDx=0;entryDy=0;exitX=0.5;exitY=1;exitDx=0;exitDy=0;" parent="1" source="yjFc0E0NA0qaScyZaOSi-21" target="yjFc0E0NA0qaScyZaOSi-23" edge="1">
          <mxGeometry width="50" height="50" relative="1" as="geometry">
            <mxPoint x="739" y="367" as="sourcePoint" />
            <mxPoint x="789" y="317" as="targetPoint" />
          </mxGeometry>
        </mxCell>
        <mxCell id="yjFc0E0NA0qaScyZaOSi-25" value="sumColumn[i] = sumColumn[i] + secondMatrix[2 * j][i] * secondMatrix[2 * j + 1][i]" style="rounded=0;whiteSpace=wrap;html=1;rotation=0;" parent="1" vertex="1">
          <mxGeometry x="793.74" y="428" width="207.5" height="60" as="geometry" />
        </mxCell>
        <mxCell id="yjFc0E0NA0qaScyZaOSi-26" value="" style="endArrow=classic;html=1;rounded=0;entryX=0.5;entryY=0;entryDx=0;entryDy=0;exitX=0.5;exitY=1;exitDx=0;exitDy=0;" parent="1" source="yjFc0E0NA0qaScyZaOSi-23" target="yjFc0E0NA0qaScyZaOSi-25" edge="1">
          <mxGeometry width="50" height="50" relative="1" as="geometry">
            <mxPoint x="739" y="367" as="sourcePoint" />
            <mxPoint x="789" y="317" as="targetPoint" />
          </mxGeometry>
        </mxCell>
        <mxCell id="yjFc0E0NA0qaScyZaOSi-27" value="Б" style="ellipse;whiteSpace=wrap;html=1;aspect=fixed;strokeColor=default;fontFamily=Helvetica;fontSize=12;fontColor=default;fillColor=default;rotation=0;" parent="1" vertex="1">
          <mxGeometry x="857.49" y="513" width="80" height="80" as="geometry" />
        </mxCell>
        <mxCell id="yjFc0E0NA0qaScyZaOSi-29" value="Б" style="ellipse;whiteSpace=wrap;html=1;aspect=fixed;strokeColor=default;fontFamily=Helvetica;fontSize=12;fontColor=default;fillColor=default;rotation=0;" parent="1" vertex="1">
          <mxGeometry x="353.75" y="900" width="80" height="80" as="geometry" />
        </mxCell>
        <mxCell id="yjFc0E0NA0qaScyZaOSi-32" value="Конец цикла по j" style="shape=loopLimit;whiteSpace=wrap;html=1;strokeColor=default;fontFamily=Helvetica;fontSize=12;fontColor=default;fillColor=default;rotation=0;direction=west;" parent="1" vertex="1">
          <mxGeometry x="290" y="1000" width="207.5" height="60" as="geometry" />
        </mxCell>
        <mxCell id="yjFc0E0NA0qaScyZaOSi-33" value="Конец цикла по i" style="shape=loopLimit;whiteSpace=wrap;html=1;strokeColor=default;fontFamily=Helvetica;fontSize=12;fontColor=default;fillColor=default;rotation=0;direction=west;" parent="1" vertex="1">
          <mxGeometry x="290" y="1100" width="207.5" height="60" as="geometry" />
        </mxCell>
        <mxCell id="yjFc0E0NA0qaScyZaOSi-34" value="" style="endArrow=classic;html=1;rounded=0;exitX=0.5;exitY=1;exitDx=0;exitDy=0;entryX=0.5;entryY=1;entryDx=0;entryDy=0;" parent="1" source="yjFc0E0NA0qaScyZaOSi-29" target="yjFc0E0NA0qaScyZaOSi-32" edge="1">
          <mxGeometry width="50" height="50" relative="1" as="geometry">
            <mxPoint x="669" y="1057" as="sourcePoint" />
            <mxPoint x="719" y="1007" as="targetPoint" />
          </mxGeometry>
        </mxCell>
        <mxCell id="yjFc0E0NA0qaScyZaOSi-35" value="" style="endArrow=classic;html=1;rounded=0;entryX=0.5;entryY=1;entryDx=0;entryDy=0;exitX=0.5;exitY=0;exitDx=0;exitDy=0;" parent="1" source="yjFc0E0NA0qaScyZaOSi-32" target="yjFc0E0NA0qaScyZaOSi-33" edge="1">
          <mxGeometry width="50" height="50" relative="1" as="geometry">
            <mxPoint x="669" y="1017" as="sourcePoint" />
            <mxPoint x="719" y="967" as="targetPoint" />
          </mxGeometry>
        </mxCell>
        <mxCell id="yjFc0E0NA0qaScyZaOSi-36" value="Цикл i = 0; i &amp;lt; n" style="shape=loopLimit;whiteSpace=wrap;html=1;rotation=0;" parent="1" vertex="1">
          <mxGeometry x="290" y="1200" width="207.5" height="60" as="geometry" />
        </mxCell>
        <mxCell id="yjFc0E0NA0qaScyZaOSi-37" value="Цикл j = 0; j &amp;lt; m" style="shape=loopLimit;whiteSpace=wrap;html=1;rotation=0;" parent="1" vertex="1">
          <mxGeometry x="290" y="1300" width="207.5" height="60" as="geometry" />
        </mxCell>
        <mxCell id="yjFc0E0NA0qaScyZaOSi-38" value="" style="endArrow=classic;html=1;rounded=0;exitX=0.5;exitY=0;exitDx=0;exitDy=0;entryX=0.5;entryY=0;entryDx=0;entryDy=0;" parent="1" source="yjFc0E0NA0qaScyZaOSi-33" target="yjFc0E0NA0qaScyZaOSi-36" edge="1">
          <mxGeometry width="50" height="50" relative="1" as="geometry">
            <mxPoint x="809" y="1177" as="sourcePoint" />
            <mxPoint x="859" y="1127" as="targetPoint" />
          </mxGeometry>
        </mxCell>
        <mxCell id="yjFc0E0NA0qaScyZaOSi-39" value="" style="endArrow=classic;html=1;rounded=0;exitX=0.5;exitY=1;exitDx=0;exitDy=0;entryX=0.5;entryY=0;entryDx=0;entryDy=0;" parent="1" source="yjFc0E0NA0qaScyZaOSi-36" target="yjFc0E0NA0qaScyZaOSi-37" edge="1">
          <mxGeometry width="50" height="50" relative="1" as="geometry">
            <mxPoint x="809" y="1177" as="sourcePoint" />
            <mxPoint x="859" y="1127" as="targetPoint" />
          </mxGeometry>
        </mxCell>
        <mxCell id="yjFc0E0NA0qaScyZaOSi-40" value="resultMatrix[i][j] = resultMatrix[i][j] - sumRow[i] - sumColumn[j]" style="rounded=0;whiteSpace=wrap;html=1;rotation=0;" parent="1" vertex="1">
          <mxGeometry x="290" y="1400" width="207.5" height="60" as="geometry" />
        </mxCell>
        <mxCell id="yjFc0E0NA0qaScyZaOSi-41" value="" style="endArrow=classic;html=1;rounded=0;entryX=0.5;entryY=0;entryDx=0;entryDy=0;exitX=0.5;exitY=1;exitDx=0;exitDy=0;" parent="1" source="yjFc0E0NA0qaScyZaOSi-37" target="yjFc0E0NA0qaScyZaOSi-40" edge="1">
          <mxGeometry width="50" height="50" relative="1" as="geometry">
            <mxPoint x="809" y="1127" as="sourcePoint" />
            <mxPoint x="859" y="1077" as="targetPoint" />
          </mxGeometry>
        </mxCell>
        <mxCell id="yjFc0E0NA0qaScyZaOSi-42" value="В" style="ellipse;whiteSpace=wrap;html=1;aspect=fixed;strokeColor=default;fontFamily=Helvetica;fontSize=12;fontColor=default;fillColor=default;rotation=0;" parent="1" vertex="1">
          <mxGeometry x="353.75" y="1500" width="80" height="80" as="geometry" />
        </mxCell>
        <mxCell id="yjFc0E0NA0qaScyZaOSi-43" value="" style="endArrow=classic;html=1;rounded=0;entryX=0.5;entryY=0;entryDx=0;entryDy=0;exitX=0.5;exitY=1;exitDx=0;exitDy=0;" parent="1" source="yjFc0E0NA0qaScyZaOSi-40" target="yjFc0E0NA0qaScyZaOSi-42" edge="1">
          <mxGeometry width="50" height="50" relative="1" as="geometry">
            <mxPoint x="809" y="1267" as="sourcePoint" />
            <mxPoint x="859" y="1217" as="targetPoint" />
          </mxGeometry>
        </mxCell>
        <mxCell id="yjFc0E0NA0qaScyZaOSi-44" value="В" style="ellipse;whiteSpace=wrap;html=1;aspect=fixed;strokeColor=default;fontFamily=Helvetica;fontSize=12;fontColor=default;fillColor=default;rotation=0;" parent="1" vertex="1">
          <mxGeometry x="717" y="900" width="80" height="80" as="geometry" />
        </mxCell>
        <mxCell id="yjFc0E0NA0qaScyZaOSi-45" value="Цикл k = 0; i &amp;lt; q / 2" style="shape=loopLimit;whiteSpace=wrap;html=1;rotation=0;" parent="1" vertex="1">
          <mxGeometry x="653.25" y="1000" width="207.5" height="60" as="geometry" />
        </mxCell>
        <mxCell id="yjFc0E0NA0qaScyZaOSi-46" value="" style="endArrow=classic;html=1;rounded=0;entryX=0.5;entryY=0;entryDx=0;entryDy=0;exitX=0.5;exitY=1;exitDx=0;exitDy=0;" parent="1" source="yjFc0E0NA0qaScyZaOSi-44" target="yjFc0E0NA0qaScyZaOSi-45" edge="1">
          <mxGeometry width="50" height="50" relative="1" as="geometry">
            <mxPoint x="809" y="1267" as="sourcePoint" />
            <mxPoint x="859" y="1217" as="targetPoint" />
          </mxGeometry>
        </mxCell>
        <mxCell id="yjFc0E0NA0qaScyZaOSi-47" value="resultMatrix[i][j] = resultMatrix[i][j] + (firstMatrix[i][2 * k + 1] + secondMatrix[2 * k][j]) * (firstMatrix[i][2 * k] + secondMatrix[2 * k + 1][j])" style="rounded=0;whiteSpace=wrap;html=1;rotation=0;" parent="1" vertex="1">
          <mxGeometry x="653.25" y="1100" width="207.5" height="60" as="geometry" />
        </mxCell>
        <mxCell id="yjFc0E0NA0qaScyZaOSi-48" value="Конец цикла по k" style="shape=loopLimit;whiteSpace=wrap;html=1;strokeColor=default;fontFamily=Helvetica;fontSize=12;fontColor=default;fillColor=default;rotation=0;direction=west;" parent="1" vertex="1">
          <mxGeometry x="653.25" y="1200" width="207.5" height="60" as="geometry" />
        </mxCell>
        <mxCell id="yjFc0E0NA0qaScyZaOSi-49" value="Конец цикла по j" style="shape=loopLimit;whiteSpace=wrap;html=1;strokeColor=default;fontFamily=Helvetica;fontSize=12;fontColor=default;fillColor=default;rotation=0;direction=west;" parent="1" vertex="1">
          <mxGeometry x="653.25" y="1300" width="207.5" height="60" as="geometry" />
        </mxCell>
        <mxCell id="yjFc0E0NA0qaScyZaOSi-50" value="Конец цикла по i" style="shape=loopLimit;whiteSpace=wrap;html=1;strokeColor=default;fontFamily=Helvetica;fontSize=12;fontColor=default;fillColor=default;rotation=0;direction=west;" parent="1" vertex="1">
          <mxGeometry x="653.25" y="1400" width="207.5" height="60" as="geometry" />
        </mxCell>
        <mxCell id="yjFc0E0NA0qaScyZaOSi-51" value="Г" style="ellipse;whiteSpace=wrap;html=1;aspect=fixed;strokeColor=default;fontFamily=Helvetica;fontSize=12;fontColor=default;fillColor=default;rotation=0;" parent="1" vertex="1">
          <mxGeometry x="717" y="1500" width="80" height="80" as="geometry" />
        </mxCell>
        <mxCell id="yjFc0E0NA0qaScyZaOSi-52" value="" style="endArrow=classic;html=1;rounded=0;entryX=0.5;entryY=0;entryDx=0;entryDy=0;exitX=0.5;exitY=1;exitDx=0;exitDy=0;" parent="1" source="yjFc0E0NA0qaScyZaOSi-45" target="yjFc0E0NA0qaScyZaOSi-47" edge="1">
          <mxGeometry width="50" height="50" relative="1" as="geometry">
            <mxPoint x="869" y="1262" as="sourcePoint" />
            <mxPoint x="919" y="1212" as="targetPoint" />
          </mxGeometry>
        </mxCell>
        <mxCell id="yjFc0E0NA0qaScyZaOSi-53" value="" style="endArrow=classic;html=1;rounded=0;entryX=0.5;entryY=1;entryDx=0;entryDy=0;exitX=0.5;exitY=1;exitDx=0;exitDy=0;" parent="1" source="yjFc0E0NA0qaScyZaOSi-47" target="yjFc0E0NA0qaScyZaOSi-48" edge="1">
          <mxGeometry width="50" height="50" relative="1" as="geometry">
            <mxPoint x="869" y="1262" as="sourcePoint" />
            <mxPoint x="919" y="1212" as="targetPoint" />
          </mxGeometry>
        </mxCell>
        <mxCell id="yjFc0E0NA0qaScyZaOSi-54" value="" style="endArrow=classic;html=1;rounded=0;entryX=0.5;entryY=1;entryDx=0;entryDy=0;exitX=0.5;exitY=0;exitDx=0;exitDy=0;" parent="1" source="yjFc0E0NA0qaScyZaOSi-48" target="yjFc0E0NA0qaScyZaOSi-49" edge="1">
          <mxGeometry width="50" height="50" relative="1" as="geometry">
            <mxPoint x="869" y="1262" as="sourcePoint" />
            <mxPoint x="919" y="1212" as="targetPoint" />
          </mxGeometry>
        </mxCell>
        <mxCell id="yjFc0E0NA0qaScyZaOSi-55" value="" style="endArrow=classic;html=1;rounded=0;entryX=0.5;entryY=1;entryDx=0;entryDy=0;exitX=0.5;exitY=0;exitDx=0;exitDy=0;" parent="1" source="yjFc0E0NA0qaScyZaOSi-49" target="yjFc0E0NA0qaScyZaOSi-50" edge="1">
          <mxGeometry width="50" height="50" relative="1" as="geometry">
            <mxPoint x="869" y="1262" as="sourcePoint" />
            <mxPoint x="919" y="1212" as="targetPoint" />
          </mxGeometry>
        </mxCell>
        <mxCell id="yjFc0E0NA0qaScyZaOSi-56" value="" style="endArrow=classic;html=1;rounded=0;entryX=0.5;entryY=0;entryDx=0;entryDy=0;exitX=0.5;exitY=0;exitDx=0;exitDy=0;" parent="1" source="yjFc0E0NA0qaScyZaOSi-50" target="yjFc0E0NA0qaScyZaOSi-51" edge="1">
          <mxGeometry width="50" height="50" relative="1" as="geometry">
            <mxPoint x="869" y="1262" as="sourcePoint" />
            <mxPoint x="919" y="1212" as="targetPoint" />
          </mxGeometry>
        </mxCell>
        <mxCell id="yjFc0E0NA0qaScyZaOSi-57" value="Г" style="ellipse;whiteSpace=wrap;html=1;aspect=fixed;strokeColor=default;fontFamily=Helvetica;fontSize=12;fontColor=default;fillColor=default;rotation=0;" parent="1" vertex="1">
          <mxGeometry x="1130" y="900" width="80" height="80" as="geometry" />
        </mxCell>
        <mxCell id="yjFc0E0NA0qaScyZaOSi-58" value="q % 2 == 1" style="strokeWidth=1;html=1;shape=mxgraph.flowchart.decision;whiteSpace=wrap;rotation=0;" parent="1" vertex="1">
          <mxGeometry x="1120" y="1000" width="100" height="100" as="geometry" />
        </mxCell>
        <mxCell id="yjFc0E0NA0qaScyZaOSi-59" value="" style="endArrow=classic;html=1;rounded=0;entryX=0.5;entryY=0;entryDx=0;entryDy=0;entryPerimeter=0;exitX=0.5;exitY=1;exitDx=0;exitDy=0;" parent="1" source="yjFc0E0NA0qaScyZaOSi-57" target="yjFc0E0NA0qaScyZaOSi-58" edge="1">
          <mxGeometry width="50" height="50" relative="1" as="geometry">
            <mxPoint x="869" y="1262" as="sourcePoint" />
            <mxPoint x="919" y="1212" as="targetPoint" />
          </mxGeometry>
        </mxCell>
        <mxCell id="yjFc0E0NA0qaScyZaOSi-60" value="Цикл i = 0; i &amp;lt; n" style="shape=loopLimit;whiteSpace=wrap;html=1;rotation=0;" parent="1" vertex="1">
          <mxGeometry x="1254" y="1067" width="207.5" height="60" as="geometry" />
        </mxCell>
        <mxCell id="yjFc0E0NA0qaScyZaOSi-61" value="Цикл j = 0; j &amp;lt; m" style="shape=loopLimit;whiteSpace=wrap;html=1;rotation=0;" parent="1" vertex="1">
          <mxGeometry x="1254" y="1167" width="207.5" height="60" as="geometry" />
        </mxCell>
        <mxCell id="yjFc0E0NA0qaScyZaOSi-62" value="resultMatrix[i][j] += firstMatrix[i][q - 1] * secondMatrix[q - 1][j]" style="rounded=0;whiteSpace=wrap;html=1;rotation=0;" parent="1" vertex="1">
          <mxGeometry x="1254" y="1267" width="207.5" height="60" as="geometry" />
        </mxCell>
        <mxCell id="yjFc0E0NA0qaScyZaOSi-63" value="Конец цикла по j" style="shape=loopLimit;whiteSpace=wrap;html=1;strokeColor=default;fontFamily=Helvetica;fontSize=12;fontColor=default;fillColor=default;rotation=0;direction=west;" parent="1" vertex="1">
          <mxGeometry x="1254" y="1367" width="207.5" height="60" as="geometry" />
        </mxCell>
        <mxCell id="yjFc0E0NA0qaScyZaOSi-64" value="Конец цикла по i" style="shape=loopLimit;whiteSpace=wrap;html=1;strokeColor=default;fontFamily=Helvetica;fontSize=12;fontColor=default;fillColor=default;rotation=0;direction=west;" parent="1" vertex="1">
          <mxGeometry x="1254" y="1467" width="207.5" height="60" as="geometry" />
        </mxCell>
        <mxCell id="yjFc0E0NA0qaScyZaOSi-65" value="" style="endArrow=classic;html=1;rounded=0;entryX=0.5;entryY=0;entryDx=0;entryDy=0;exitX=1;exitY=0.5;exitDx=0;exitDy=0;exitPerimeter=0;edgeStyle=orthogonalEdgeStyle;" parent="1" source="yjFc0E0NA0qaScyZaOSi-58" target="yjFc0E0NA0qaScyZaOSi-60" edge="1">
          <mxGeometry width="50" height="50" relative="1" as="geometry">
            <mxPoint x="869" y="1267" as="sourcePoint" />
            <mxPoint x="919" y="1217" as="targetPoint" />
          </mxGeometry>
        </mxCell>
        <mxCell id="yjFc0E0NA0qaScyZaOSi-66" value="" style="endArrow=classic;html=1;rounded=0;entryX=0.5;entryY=0;entryDx=0;entryDy=0;exitX=0.5;exitY=1;exitDx=0;exitDy=0;" parent="1" source="yjFc0E0NA0qaScyZaOSi-60" target="yjFc0E0NA0qaScyZaOSi-61" edge="1">
          <mxGeometry width="50" height="50" relative="1" as="geometry">
            <mxPoint x="869" y="1267" as="sourcePoint" />
            <mxPoint x="919" y="1217" as="targetPoint" />
          </mxGeometry>
        </mxCell>
        <mxCell id="yjFc0E0NA0qaScyZaOSi-67" value="" style="endArrow=classic;html=1;rounded=0;entryX=0.5;entryY=0;entryDx=0;entryDy=0;exitX=0.5;exitY=1;exitDx=0;exitDy=0;" parent="1" source="yjFc0E0NA0qaScyZaOSi-61" target="yjFc0E0NA0qaScyZaOSi-62" edge="1">
          <mxGeometry width="50" height="50" relative="1" as="geometry">
            <mxPoint x="869" y="1267" as="sourcePoint" />
            <mxPoint x="919" y="1217" as="targetPoint" />
          </mxGeometry>
        </mxCell>
        <mxCell id="yjFc0E0NA0qaScyZaOSi-68" value="" style="endArrow=classic;html=1;rounded=0;entryX=0.5;entryY=1;entryDx=0;entryDy=0;exitX=0.5;exitY=1;exitDx=0;exitDy=0;" parent="1" source="yjFc0E0NA0qaScyZaOSi-62" target="yjFc0E0NA0qaScyZaOSi-63" edge="1">
          <mxGeometry width="50" height="50" relative="1" as="geometry">
            <mxPoint x="869" y="1267" as="sourcePoint" />
            <mxPoint x="919" y="1217" as="targetPoint" />
          </mxGeometry>
        </mxCell>
        <mxCell id="yjFc0E0NA0qaScyZaOSi-69" value="" style="endArrow=classic;html=1;rounded=0;entryX=0.5;entryY=1;entryDx=0;entryDy=0;exitX=0.5;exitY=0;exitDx=0;exitDy=0;" parent="1" source="yjFc0E0NA0qaScyZaOSi-63" target="yjFc0E0NA0qaScyZaOSi-64" edge="1">
          <mxGeometry width="50" height="50" relative="1" as="geometry">
            <mxPoint x="869" y="1267" as="sourcePoint" />
            <mxPoint x="919" y="1217" as="targetPoint" />
          </mxGeometry>
        </mxCell>
        <mxCell id="yjFc0E0NA0qaScyZaOSi-70" value="Да" style="text;html=1;strokeColor=none;fillColor=none;align=center;verticalAlign=middle;whiteSpace=wrap;rounded=0;" parent="1" vertex="1">
          <mxGeometry x="1241" y="1010" width="60" height="30" as="geometry" />
        </mxCell>
        <mxCell id="yjFc0E0NA0qaScyZaOSi-71" value="Конец" style="strokeWidth=1;html=1;shape=mxgraph.flowchart.terminator;whiteSpace=wrap;rotation=0;" parent="1" vertex="1">
          <mxGeometry x="1093.5" y="1580" width="207.5" height="60" as="geometry" />
        </mxCell>
        <mxCell id="yjFc0E0NA0qaScyZaOSi-72" value="" style="endArrow=none;html=1;rounded=0;entryX=0.01;entryY=0.47;entryDx=0;entryDy=0;entryPerimeter=0;exitX=0.5;exitY=0;exitDx=0;exitDy=0;edgeStyle=orthogonalEdgeStyle;" parent="1" source="yjFc0E0NA0qaScyZaOSi-64" target="yjFc0E0NA0qaScyZaOSi-58" edge="1">
          <mxGeometry width="50" height="50" relative="1" as="geometry">
            <mxPoint x="869" y="1310" as="sourcePoint" />
            <mxPoint x="919" y="1260" as="targetPoint" />
            <Array as="points">
              <mxPoint x="1358" y="1537" />
              <mxPoint x="1012" y="1537" />
              <mxPoint x="1012" y="1047" />
            </Array>
          </mxGeometry>
        </mxCell>
        <mxCell id="yjFc0E0NA0qaScyZaOSi-73" value="" style="endArrow=classic;html=1;rounded=0;entryX=0.5;entryY=0;entryDx=0;entryDy=0;entryPerimeter=0;" parent="1" target="yjFc0E0NA0qaScyZaOSi-71" edge="1">
          <mxGeometry width="50" height="50" relative="1" as="geometry">
            <mxPoint x="1197" y="1535" as="sourcePoint" />
            <mxPoint x="919" y="1260" as="targetPoint" />
          </mxGeometry>
        </mxCell>
        <mxCell id="6fxj0AOr8f9V504iEyFA-1" value="Начало" style="strokeWidth=1;html=1;shape=mxgraph.flowchart.terminator;whiteSpace=wrap;rotation=0;" vertex="1" parent="1">
          <mxGeometry x="290" y="-14" width="207.5" height="60" as="geometry" />
        </mxCell>
        <mxCell id="6fxj0AOr8f9V504iEyFA-2" value="Цикл i = 0; i &amp;lt; n" style="shape=loopLimit;whiteSpace=wrap;html=1;rotation=0;" vertex="1" parent="1">
          <mxGeometry x="290" y="476" width="207.5" height="60" as="geometry" />
        </mxCell>
        <mxCell id="6fxj0AOr8f9V504iEyFA-3" value="n = кол-во строк А" style="rounded=0;whiteSpace=wrap;html=1;rotation=0;" vertex="1" parent="1">
          <mxGeometry x="290" y="66" width="207.5" height="60" as="geometry" />
        </mxCell>
        <mxCell id="6fxj0AOr8f9V504iEyFA-4" value="Цикл j = 0; j &amp;lt; q / 2" style="shape=loopLimit;whiteSpace=wrap;html=1;rotation=0;" vertex="1" parent="1">
          <mxGeometry x="290" y="556" width="207.5" height="60" as="geometry" />
        </mxCell>
        <mxCell id="6fxj0AOr8f9V504iEyFA-5" value="Создание массивов sumRow длинной n и sumColumn длинной m" style="rounded=0;whiteSpace=wrap;html=1;rotation=0;" vertex="1" parent="1">
          <mxGeometry x="290" y="397" width="207.5" height="60" as="geometry" />
        </mxCell>
        <mxCell id="6fxj0AOr8f9V504iEyFA-6" value="m = кол-во столбцов B" style="rounded=0;whiteSpace=wrap;html=1;rotation=0;" vertex="1" parent="1">
          <mxGeometry x="290" y="149" width="207.5" height="60" as="geometry" />
        </mxCell>
        <mxCell id="6fxj0AOr8f9V504iEyFA-7" value="q = кол-во столбцов А" style="rounded=0;whiteSpace=wrap;html=1;rotation=0;" vertex="1" parent="1">
          <mxGeometry x="290" y="315" width="207.5" height="60" as="geometry" />
        </mxCell>
        <mxCell id="6fxj0AOr8f9V504iEyFA-8" value="p = кол-во строк В" style="rounded=0;whiteSpace=wrap;html=1;rotation=0;" vertex="1" parent="1">
          <mxGeometry x="290" y="232" width="207.5" height="60" as="geometry" />
        </mxCell>
        <mxCell id="6fxj0AOr8f9V504iEyFA-9" value="" style="endArrow=classic;html=1;rounded=0;entryX=0.5;entryY=0;entryDx=0;entryDy=0;exitX=0.5;exitY=1;exitDx=0;exitDy=0;exitPerimeter=0;" edge="1" parent="1" source="6fxj0AOr8f9V504iEyFA-1" target="6fxj0AOr8f9V504iEyFA-3">
          <mxGeometry width="50" height="50" relative="1" as="geometry">
            <mxPoint x="330" y="388" as="sourcePoint" />
            <mxPoint x="380" y="338" as="targetPoint" />
          </mxGeometry>
        </mxCell>
        <mxCell id="6fxj0AOr8f9V504iEyFA-10" value="" style="endArrow=classic;html=1;rounded=0;entryX=0.5;entryY=0;entryDx=0;entryDy=0;exitX=0.5;exitY=1;exitDx=0;exitDy=0;" edge="1" parent="1" source="6fxj0AOr8f9V504iEyFA-3" target="6fxj0AOr8f9V504iEyFA-6">
          <mxGeometry width="50" height="50" relative="1" as="geometry">
            <mxPoint x="330" y="388" as="sourcePoint" />
            <mxPoint x="380" y="338" as="targetPoint" />
          </mxGeometry>
        </mxCell>
        <mxCell id="6fxj0AOr8f9V504iEyFA-11" value="" style="endArrow=classic;html=1;rounded=0;entryX=0.5;entryY=0;entryDx=0;entryDy=0;exitX=0.5;exitY=1;exitDx=0;exitDy=0;" edge="1" parent="1" source="6fxj0AOr8f9V504iEyFA-6" target="6fxj0AOr8f9V504iEyFA-8">
          <mxGeometry width="50" height="50" relative="1" as="geometry">
            <mxPoint x="330" y="388" as="sourcePoint" />
            <mxPoint x="380" y="338" as="targetPoint" />
          </mxGeometry>
        </mxCell>
        <mxCell id="6fxj0AOr8f9V504iEyFA-12" value="" style="endArrow=classic;html=1;rounded=0;entryX=0.5;entryY=0;entryDx=0;entryDy=0;exitX=0.5;exitY=1;exitDx=0;exitDy=0;" edge="1" parent="1" source="6fxj0AOr8f9V504iEyFA-8" target="6fxj0AOr8f9V504iEyFA-7">
          <mxGeometry width="50" height="50" relative="1" as="geometry">
            <mxPoint x="330" y="388" as="sourcePoint" />
            <mxPoint x="380" y="338" as="targetPoint" />
          </mxGeometry>
        </mxCell>
        <mxCell id="6fxj0AOr8f9V504iEyFA-13" value="" style="endArrow=classic;html=1;rounded=0;entryX=0.5;entryY=0;entryDx=0;entryDy=0;exitX=0.5;exitY=1;exitDx=0;exitDy=0;" edge="1" parent="1" source="6fxj0AOr8f9V504iEyFA-7" target="6fxj0AOr8f9V504iEyFA-5">
          <mxGeometry width="50" height="50" relative="1" as="geometry">
            <mxPoint x="330" y="388" as="sourcePoint" />
            <mxPoint x="380" y="338" as="targetPoint" />
          </mxGeometry>
        </mxCell>
        <mxCell id="6fxj0AOr8f9V504iEyFA-14" value="" style="endArrow=classic;html=1;rounded=0;entryX=0.5;entryY=0;entryDx=0;entryDy=0;exitX=0.5;exitY=1;exitDx=0;exitDy=0;" edge="1" parent="1" source="6fxj0AOr8f9V504iEyFA-5" target="6fxj0AOr8f9V504iEyFA-2">
          <mxGeometry width="50" height="50" relative="1" as="geometry">
            <mxPoint x="330" y="388" as="sourcePoint" />
            <mxPoint x="380" y="338" as="targetPoint" />
          </mxGeometry>
        </mxCell>
        <mxCell id="6fxj0AOr8f9V504iEyFA-15" value="" style="endArrow=classic;html=1;rounded=0;entryX=0.5;entryY=0;entryDx=0;entryDy=0;exitX=0.5;exitY=1;exitDx=0;exitDy=0;" edge="1" parent="1" source="6fxj0AOr8f9V504iEyFA-2" target="6fxj0AOr8f9V504iEyFA-4">
          <mxGeometry width="50" height="50" relative="1" as="geometry">
            <mxPoint x="330" y="388" as="sourcePoint" />
            <mxPoint x="380" y="338" as="targetPoint" />
          </mxGeometry>
        </mxCell>
      </root>
    </mxGraphModel>
  </diagram>
</mxfile>
